<svg id="exclam" xmlns="http://www.w3.org/2000/svg" viewBox="0 0 640.01 199.3"><title>lett-footer</title><path d="M611,111.8a4.32,4.32,0,0,1-4.08-1.68,9.2,9.2,0,0,1-2.08-4.64,10.6,10.6,0,0,1,.56-5.28,6.25,6.25,0,0,1,3.84-3.76q3.52-1.12,5.52,1a8.54,8.54,0,0,1,2.32,5.2,10.36,10.36,0,0,1-1.2,6A5.8,5.8,0,0,1,611,111.8ZM631.51,18a3.8,3.8,0,0,1,2.8-1.12,7.08,7.08,0,0,1,3,.64,5,5,0,0,1,2.16,1.92,3.38,3.38,0,0,1,.32,2.88q-0.64,2.4-2.08,7t-3.44,10.32q-2,5.76-4.32,12.24t-4.72,12.8q-2.4,6.32-4.72,12t-4.08,9.68q-0.64,1.44-1.76,1.12a2.39,2.39,0,0,1-1.6-1.6,50.37,50.37,0,0,1-.8-10.4,77.72,77.72,0,0,1,1-9.92q0.8-4.48,2.64-11.52t4.32-14.24a118.42,118.42,0,0,1,5.44-13.28Q628.63,20.44,631.51,18Z"/><path d="M258.24,116.6a46.66,46.66,0,0,1-4.8-8.16,58.39,58.39,0,0,1-3.36-9.12,150.57,150.57,0,0,1-.16-39.76,233.38,233.38,0,0,1,8.32-38q1-2.08,4.16-2.08a15.49,15.49,0,0,1,6.4,1.44,15,15,0,0,1,5.28,3.84,4.42,4.42,0,0,1,1,5A68.62,68.62,0,0,0,271.52,40q-1.76,6.48-3.36,14.32t-2.8,16.4q-1.2,8.56-1.76,16.4a116.53,116.53,0,0,0-.24,14.16,29.32,29.32,0,0,0,1.92,10A213.76,213.76,0,0,0,279,90.44q6.24-10.8,11.76-21.92T301.28,46q5-11.36,9.76-22.4,2.4-5.6,4.72-11.84a35,35,0,0,1,6.16-10.72q1.6-1.44,2.48-1A2.65,2.65,0,0,1,325.6,2a12.58,12.58,0,0,1,.32,2.88V7.16Q324.8,14.52,324,21.72a56.61,56.61,0,0,1-3.36,13.92q-4.16,10.56-8.56,21t-9.44,20.48q-5,10.08-10.88,19.6A181.8,181.8,0,0,1,279,114.84q-5.44,6.88-10.8,7.28T258.24,116.6Z"/><path d="M327.2,64.12q0.48,1.12,1.6,0a34.06,34.06,0,0,0,5.36-7,10.68,10.68,0,0,0,1.2-8.32,3.3,3.3,0,0,0-1.44-1.68,9.5,9.5,0,0,0-2.08-1,4.9,4.9,0,0,0-3.92.88,6.22,6.22,0,0,0-2.8,3.44,13.27,13.27,0,0,0-.64,7A18.18,18.18,0,0,0,327.2,64.12Z"/><path d="M609.75,89.56q-0.8-1-8.64,5.28-2.72,2.24-6.32,5.44t-7,6.08a64,64,0,0,1-6,4.64q-2.64,1.76-3.76,1a27.22,27.22,0,0,1,.72-7.52,55.7,55.7,0,0,1,2.32-7.36q1.44-3.68,3.2-7.44T588,81.88a20.29,20.29,0,0,0-.72-6.48,14.48,14.48,0,0,0-2.64-5.28,9,9,0,0,0-4.16-3,7.64,7.64,0,0,0-5.28.32,55.61,55.61,0,0,0-12.16,7A88.79,88.79,0,0,0,552.15,84a32.82,32.82,0,0,0,.8-5.76,12.78,12.78,0,0,0-1.12-5.92,5.8,5.8,0,0,0-3.36-3.52,4.54,4.54,0,0,0-4.32.64q-4.32,5.44-8.88,11T526.07,91q0.64-3,1.44-6.24t1.44-6.4a9,9,0,0,0-.24-5.28,6,6,0,0,0-2.4-3,4.08,4.08,0,0,0-3.12-.48A3.18,3.18,0,0,0,521,72q-1,2.72-2,6.16t-2.16,7c-0.2.65-.38,1.27-0.58,1.92l-1.34,1.36q-1.6,1.44-4,3.68l-5,4.64q-2.56,2.4-5.12,4.56t-4.64,3.6q-1.76,1-4.64,2.24a17.65,17.65,0,0,1-5.68,1.52,6.85,6.85,0,0,1-4.56-1q-1.76-1.2-1.28-5.36a7,7,0,0,1,1.76-3.92,36.35,36.35,0,0,1,4.16-4.56q2.4-2.24,5-4.32t4-3.36A18.56,18.56,0,0,0,499,81a23.39,23.39,0,0,0,1.84-6,7.51,7.51,0,0,0-1-6.24,8.62,8.62,0,0,0-5.2-3.36,19.92,19.92,0,0,0-11.44,3.68,28.73,28.73,0,0,0-8.08,9,45.32,45.32,0,0,0-4.65,11.55l-3.19,1.81c-2.13,1.28-4.59,2.64-6.88,4.08s-3.88,3-6.88,4.56v-1.6c0-2.13-.1-4.16-0.16-6.08s-0.07-3.84-.28-5.76a2.44,2.44,0,0,0-2.18-2.24,11.4,11.4,0,0,0-4.21.16A21.78,21.78,0,0,0,442.14,86a22.65,22.65,0,0,0-3.11,1.6,58.16,58.16,0,0,0-5.76,4.08q-3.36,2.64-6.48,5a52.89,52.89,0,0,1-5.76,3.92q-2.64,1.52-3.6.56a10.83,10.83,0,0,1,0-5.28,20.64,20.64,0,0,1,2.64-6.72,19.46,19.46,0,0,1,5.44-5.84,14,14,0,0,1,8.4-2.48q1.6,0,3.44.16t3.6,0.48q4.16,0.48,2.56-3a4,4,0,0,0-1.84-2.4,34.47,34.47,0,0,0-3.12-1.6,25,25,0,0,0-17.6-.64,17.9,17.9,0,0,0-9.44,6.4A27.58,27.58,0,0,0,408.66,85a53,53,0,0,0-3.86,4.12q-2.88,3.36-6.16,7t-6.64,7a21.39,21.39,0,0,1-6.4,4.56q-3.84,1.44-5.28.16t-1-5.44a22.19,22.19,0,0,1,2.32-6.24q1.84-3.52,3-6.08A5.77,5.77,0,0,0,385,86,6.94,6.94,0,0,0,383,82.6a6,6,0,0,0-3.6-1.52,6,6,0,0,0-4.16,1.44q-0.16.16-2.16,2.8t-4.72,6.08q-2.72,3.44-5.76,7a48.6,48.6,0,0,1-5.44,5.52q-2.4,2-3.52,1.76t-0.16-4.4a40.63,40.63,0,0,1,3.2-7.6,84,84,0,0,1,6.08-10.08,61.7,61.7,0,0,1,7.36-8.8Q373.92,71,377,71a3.55,3.55,0,0,1,2.32.72,5.49,5.49,0,0,1,1.36,1.6,8.25,8.25,0,0,1,.72,1.76q0.24,0.88.4,1.36a1.13,1.13,0,0,0,1,.88,1.94,1.94,0,0,0,1-.72,5.81,5.81,0,0,0,1-1.6q0.4-1,.72-1.92a6.52,6.52,0,0,0-.48-4.72,9.87,9.87,0,0,0-3.2-3.6,11.25,11.25,0,0,0-4.88-1.84,13.9,13.9,0,0,0-5.36.24,24.54,24.54,0,0,0-13.12,7.36,51,51,0,0,0-9,13.12c-0.47,1-.92,2.06-1.34,3.09q-4.25,4.67-8.58,9.31-5.92,6.32-12.48,13a36,36,0,0,1-4.32,3.84q-1.6,1.12-1.28-1.28a29.36,29.36,0,0,1,.8-3.68q0.64-2.4,1.44-5l1.52-5q0.72-2.4,1-3.68,0.8-2.72,1.44-5.2t1.44-5.2a10.12,10.12,0,0,0,.24-5.76,13.32,13.32,0,0,0-2.24-4.88,7.27,7.27,0,0,0-3.44-2.64,3.06,3.06,0,0,0-3.36.8A26.16,26.16,0,0,0,318.08,76a131.27,131.27,0,0,0-4.72,16.72,67.27,67.27,0,0,0-1.52,18,10.08,10.08,0,0,0,1.52,5.36,13.43,13.43,0,0,0,4.24,4.24,4.19,4.19,0,0,0,2.16.8,10,10,0,0,0,2.8-.08,16.65,16.65,0,0,0,2.8-.72,7.51,7.51,0,0,0,2.16-1.12,38.2,38.2,0,0,0,4.16-4.16,48.21,48.21,0,0,0,4.32-4.72q2.72-3.28,5.68-7.2C342.47,102,343.24,101,344,100c-0.12.54-.23,1.08-0.33,1.6a21.13,21.13,0,0,0,.16,4.32,6.82,6.82,0,0,0,1.76,4.16,18.77,18.77,0,0,0,3,2.48,9.1,9.1,0,0,0,3.52,1.36,11.5,11.5,0,0,0,4.88-.08,20.56,20.56,0,0,0,4.4-1.6,23.34,23.34,0,0,0,3.84-2.4l3.2-2.48a15.25,15.25,0,0,0,1.76,4.8,11.1,11.1,0,0,0,8,5.52,12,12,0,0,0,5.76-.72,38.44,38.44,0,0,0,9.52-5.2,48.43,48.43,0,0,0,8-7.52,62,62,0,0,0,4.3-5.74,17.35,17.35,0,0,0,.82,4.14,11.33,11.33,0,0,0,3,4.64,10.7,10.7,0,0,0,5.76,2.64,20.37,20.37,0,0,0,8-.64,44,44,0,0,0,7.84-3,56.19,56.19,0,0,0,7.44-4.48q3.6-2.56,6.8-5.12,1.28-1.28,1.6-.08a8.79,8.79,0,0,1,.08,3.2,31.78,31.78,0,0,1-.8,4.16,6.68,6.68,0,0,1-1.2,2.8q-7,6.08-13.76,12.56a171.5,171.5,0,0,0-12.72,13.68,153.75,153.75,0,0,0-11.2,15.28,123.16,123.16,0,0,0-9.2,17.2,60.17,60.17,0,0,0-2.72,7.52,37.9,37.9,0,0,0-1.52,8.72,25.79,25.79,0,0,0,.88,8.4,13.87,13.87,0,0,0,4.48,6.88,9.23,9.23,0,0,0,4.4,2.16,15.65,15.65,0,0,0,4.72.08,48.55,48.55,0,0,0,16.4-14.4,104.37,104.37,0,0,0,11.6-20.4,196.06,196.06,0,0,0,8.24-23q3.44-11.84,6.64-22.24a40.75,40.75,0,0,1,1.84-5.92,15.84,15.84,0,0,1,3.6-5.12q3.52-3.2,6.48-5.68c1.82-1.52,3.76-3.31,5.8-5.33a40.31,40.31,0,0,0-.12,5.73q0,8,4.72,11.52t12.08,3a24.29,24.29,0,0,0,8.08-2.8,49.18,49.18,0,0,0,7.52-5.12,71.08,71.08,0,0,0,6.88-6.48c1.74-1.86,3.37-3.64,4.94-5.37-0.07.3-.15,0.61-0.22,0.89a25.87,25.87,0,0,0-.64,4.4,31.29,31.29,0,0,0,0,6.32,14.77,14.77,0,0,0,.56,2.16,5.58,5.58,0,0,0,1.12,2,2.84,2.84,0,0,0,1.68,1,2.88,2.88,0,0,0,2.24-1q5.6-7.68,11.44-15.36t12.56-15.2q-0.32,1.28-.8,4.56a55.09,55.09,0,0,0-.56,6.72,30.19,30.19,0,0,0,.4,6.08q0.48,2.64,2.08,2.64a3.78,3.78,0,0,0,1.52-.4,12.35,12.35,0,0,0,2.64-2q4.16-4,9.12-8.8T565.75,83q4.48-3.84,7.6-6t3.6-.88q-1.92,3.68-4.16,8a88,88,0,0,0-4,8.88,64.73,64.73,0,0,0-2.8,9.2,26.28,26.28,0,0,0-.56,8.8,9.21,9.21,0,0,0,2.24,5.36,11.84,11.84,0,0,0,4.56,3.2,13.44,13.44,0,0,0,5.36,1,8.71,8.71,0,0,0,4.8-1.52,74.59,74.59,0,0,0,12.08-10.24q5.68-5.92,10.8-12Q610.55,90.52,609.75,89.56Zm-122-12.64a18,18,0,0,1,6.8-4.16,15.5,15.5,0,0,1-4.08,6.48,64.72,64.72,0,0,1-6.32,5.2A15.49,15.49,0,0,1,487.75,76.92Zm-51.44,51.92q-1.76,4.72-4.08,10.08t-4.64,10.24q-2.32,4.88-3.44,7.12-1.44,2.88-3.68,7.44t-5,9.36a73.07,73.07,0,0,1-6,8.8,20.08,20.08,0,0,1-6.4,5.6,23.22,23.22,0,0,1-.56-8.72,53.94,53.94,0,0,1,2-8.88,73.71,73.71,0,0,1,6.08-13.36,115.53,115.53,0,0,1,8.08-12.08q4.4-5.76,9.44-11.28l10-11A22.9,22.9,0,0,1,436.31,128.84Z"/><path d="M55.84,51.16a6.1,6.1,0,0,0,1.76-.24,6.12,6.12,0,0,1,1.76-.24,27.91,27.91,0,0,0,10.8-2.56,51.37,51.37,0,0,0,11-6.4,35.9,35.9,0,0,0,8.16-8.48q3.12-4.64,2.32-9a15.86,15.86,0,0,0-6.8-7.52,28.36,28.36,0,0,0-10.64-3.28,52.38,52.38,0,0,0-12.88.16,97.08,97.08,0,0,0-13.44,2.72,86.07,86.07,0,0,0-12.48,4.48,51.62,51.62,0,0,0-9.68,5.52q-1.76.64-2-.88a9.18,9.18,0,0,1,.32-3.68,23.45,23.45,0,0,1,1.6-4.32,15.81,15.81,0,0,1,1.84-3.12A18.13,18.13,0,0,1,32.8,7.8a28.1,28.1,0,0,1,7-3.84A58.93,58.93,0,0,1,55.52,1.08,83.23,83.23,0,0,1,74.4,2a58.06,58.06,0,0,1,17,5.36q7.6,3.84,10.32,10.56a23.71,23.71,0,0,1,.88,10.32,28,28,0,0,1-3,9.36,34.17,34.17,0,0,1-6,8,45.71,45.71,0,0,1-8,6.4,2.46,2.46,0,0,1-.64.48l-1,.48q2.72,1.12,5.12,2.16a21.22,21.22,0,0,1,4.64,2.8,20,20,0,0,1,4.64,5,17.79,17.79,0,0,1,2.56,6,22,22,0,0,1,.64,10.48,48.58,48.58,0,0,1-2.72,9.52,68.62,68.62,0,0,1-5.68,9.36A41.75,41.75,0,0,1,86.08,106a71.61,71.61,0,0,1-22.48,17A86.25,86.25,0,0,1,37,130.84a82.21,82.21,0,0,1-9-.16,25.32,25.32,0,0,1-7.68-1.76,20.66,20.66,0,0,1-6.4-4.16A24.89,24.89,0,0,1,8.8,117.4a71.68,71.68,0,0,1-5.52-9.84,36.36,36.36,0,0,1-3-10A19.93,19.93,0,0,1,1,88.28,16.32,16.32,0,0,1,6.72,80.6,54,54,0,0,1,13,75.72a20.36,20.36,0,0,1,7.44-3l1.36-.56A3.44,3.44,0,0,1,23.2,72h0.48a8.43,8.43,0,0,0-1.28,1.6,6.6,6.6,0,0,1-1,1.28,71.12,71.12,0,0,0-5.28,7.52A36.87,36.87,0,0,0,12.24,91a27.27,27.27,0,0,0-1.2,9,14.91,14.91,0,0,0,2.72,8.16A15.5,15.5,0,0,0,19.12,113a20.79,20.79,0,0,0,6.72,2.24,33.06,33.06,0,0,0,7.28.32q3.68-.24,7-0.72a60.54,60.54,0,0,0,19.76-7.36,83.46,83.46,0,0,0,16.4-12.8q1.92-2.24,4.08-5a69.18,69.18,0,0,0,4-5.76,47.55,47.55,0,0,0,3.2-6.08,25.69,25.69,0,0,0,1.84-6,13.21,13.21,0,0,0-3-6.8,10.92,10.92,0,0,0-5.84-3.12,34.88,34.88,0,0,0-8.88-.56q-5.2.24-11.92,0.88a42.42,42.42,0,0,1-4.64.4q-2.4.08-4.8,0.4a0.89,0.89,0,0,0-.48.32,0.46,0.46,0,0,1-.32.16Q44.48,73.08,39.84,83a92.87,92.87,0,0,1-11.36,18.4q-0.32.48-1.52,2.16a24.12,24.12,0,0,1-2.56,3,5.26,5.26,0,0,1-2.64,1.6q-1.28.24-1.6-2.16a8.34,8.34,0,0,1-.64-4.24,35,35,0,0,1,.8-5.52,54.82,54.82,0,0,1,1.52-5.52l1.36-4.08Q24,83.8,24.8,81a52,52,0,0,1,1.92-5.52q3.52-7,6.64-13.92T40.16,48q1.92-4.16,3.92-8.16T48.16,32a4.47,4.47,0,0,1,3.68-2.32,7,7,0,0,1,4.24,1.28,11.27,11.27,0,0,1,3.36,3.68,7.91,7.91,0,0,1,1,5,34.69,34.69,0,0,1-2.08,6Q57.12,48.44,55.84,51.16Z"/><path d="M221.68,83.72a1.22,1.22,0,0,0-.88-0.88,1,1,0,0,0-1.2.24,13.23,13.23,0,0,0-1.2,1,43.8,43.8,0,0,0-4.8,5q-2.88,3.36-6.16,7t-6.64,7a21.4,21.4,0,0,1-6.4,4.56q-3.84,1.44-5.28.16t-1-5.44a22.19,22.19,0,0,1,2.32-6.24q1.84-3.52,3-6.08a5.77,5.77,0,0,0,.4-4.08,6.94,6.94,0,0,0-2.08-3.36,6,6,0,0,0-3.6-1.52A6,6,0,0,0,184,82.52q-0.16.16-2.16,2.8t-4.72,6.08q-2.72,3.44-5.76,7a48.72,48.72,0,0,1-5.44,5.52q-2.4,2-3.52,1.76t-0.16-4.4a40.66,40.66,0,0,1,3.2-7.6,84,84,0,0,1,6.08-10.08,61.7,61.7,0,0,1,7.36-8.8Q182.72,71,185.76,71a3.55,3.55,0,0,1,2.32.72,5.49,5.49,0,0,1,1.36,1.6,8.23,8.23,0,0,1,.72,1.76q0.24,0.88.4,1.36a1.13,1.13,0,0,0,1,.88,1.94,1.94,0,0,0,1-.72,5.79,5.79,0,0,0,1-1.6q0.4-1,.72-1.92a6.52,6.52,0,0,0-.48-4.72,9.87,9.87,0,0,0-3.2-3.6,11.25,11.25,0,0,0-4.88-1.84,13.9,13.9,0,0,0-5.36.24,24.54,24.54,0,0,0-13.12,7.36,50.57,50.57,0,0,0-7.65,10.57c-0.72.21-1.44,0.44-2.19,0.71q-2.48.88-4.72,1.52-1.92.48-4.16,1.28a16.4,16.4,0,0,1-4.16,1q0.16-1,.48-2.88a18.36,18.36,0,0,0,.16-4.24,20.28,20.28,0,0,0-1-4.8,12.26,12.26,0,0,0-2.72-4.56,11.19,11.19,0,0,0-5.2-3.68,13.16,13.16,0,0,0-6.48-.32,16.6,16.6,0,0,0-9.84,4.72,38.93,38.93,0,0,0-7,8.88,12.85,12.85,0,0,0-1.44,3.52q-0.48,1.92-1,3.68a1.6,1.6,0,0,1-.72.64c-0.27.11-.5,0.21-0.72,0.32a2.07,2.07,0,0,0-.64.56,3.39,3.39,0,0,0-.48,1.52,48.71,48.71,0,0,0-1.12,6.16,40.87,40.87,0,0,0-.24,7.68,26.31,26.31,0,0,0,1.44,7.28,9.58,9.58,0,0,0,3.6,5,11.91,11.91,0,0,0,7.68,2.56q3.2,0,6.64-2.88a45.07,45.07,0,0,0,6.56-6.88,83.83,83.83,0,0,0,5.68-8.24q2.56-4.24,4-6.8A32.77,32.77,0,0,1,149.2,90a44.78,44.78,0,0,0,7.43-2.65c-0.71,1.77-1.35,3.56-1.91,5.37a82.58,82.58,0,0,0-2.24,8.8,21.16,21.16,0,0,0,.16,4.32A6.82,6.82,0,0,0,154.4,110a18.77,18.77,0,0,0,3,2.48,9.1,9.1,0,0,0,3.52,1.36,11.5,11.5,0,0,0,4.88-.08,20.56,20.56,0,0,0,4.4-1.6,23.34,23.34,0,0,0,3.84-2.4l3.2-2.48a15.23,15.23,0,0,0,1.76,4.8,11.1,11.1,0,0,0,8,5.52,12,12,0,0,0,5.76-.72,38.44,38.44,0,0,0,9.52-5.2,48.41,48.41,0,0,0,8-7.52A63.1,63.1,0,0,0,216.8,95a80,80,0,0,0,5-10.08A8.62,8.62,0,0,0,221.68,83.72Zm-90.08,16a41.61,41.61,0,0,1-3.2,5.2,36.84,36.84,0,0,1-3.84,4.56,7.66,7.66,0,0,1-3.6,2.32,11,11,0,0,1-1.28-3.52,32.26,32.26,0,0,1-.64-4.72,35.77,35.77,0,0,1,0-4.8,15.52,15.52,0,0,1,.64-3.76,35,35,0,0,0,6.88.64q3.68,0,6.88-.32A23.88,23.88,0,0,1,131.6,99.72Zm4.56-13.52a1.13,1.13,0,0,1-1,1,24.55,24.55,0,0,0-3,.32,39.28,39.28,0,0,1-4.48.4,34.12,34.12,0,0,1-4.16-.08q-1.84-.16-1.84-1a3.76,3.76,0,0,0-1.44-3.2,1.55,1.55,0,0,1-.32-1.12q1.76-2.72,3.68-5.28a17.61,17.61,0,0,1,5.12-4.48,6.15,6.15,0,0,1,3.36-.64A4.2,4.2,0,0,1,135,73.56a8.29,8.29,0,0,1,2.32,5.92A16.24,16.24,0,0,1,136.16,86.2Z"/></svg>