<svg version="1.1" xmlns="http://www.w3.org/2000/svg" xmlns:xlink="http://www.w3.org/1999/xlink" viewBox="0 0 728.4 290.09" style="enable-background:new 0 0 1400 980;" xml:space="preserve">
  <g class="teste">
    <path d="M22.71,276.93a110.81,110.81,0,0,1-11.4-19.38,138.7,138.7,0,0,1-8-21.66,357.61,357.61,0,0,1-.38-94.43A554.25,554.25,0,0,1,22.71,51.21q2.28-4.93,9.88-4.94a36.79,36.79,0,0,1,15.2,3.42,35.7,35.7,0,0,1,12.54,9.12q4.93,5.7,2.28,11.78a163.09,163.09,0,0,0-8.36,24.51q-4.19,15.39-8,34t-6.65,39Q36.77,188.39,35.44,207a276.65,276.65,0,0,0-.57,33.63q0.76,15,4.56,23.75a507.62,507.62,0,0,0,32.68-49.59Q86.93,189.14,100,162.73t24.89-53.39q11.77-27,23.18-53.2,5.7-13.3,11.21-28.12A83.23,83.23,0,0,1,173.95,2.56q3.79-3.42,5.89-2.28a6.29,6.29,0,0,1,2.85,4.37,29.91,29.91,0,0,1,.76,6.84V17q-2.66,17.48-4.56,34.58a134.46,134.46,0,0,1-8,33.06q-9.89,25.08-20.33,49.78t-22.42,48.64q-12,23.94-25.84,46.55a431.66,431.66,0,0,1-30.21,43.13Q59.18,289.08,46.46,290T22.71,276.93Z"/>
    <path d="M147.34,244.24a103.65,103.65,0,0,1,3-30,107.93,107.93,0,0,1,11.4-28.69A68.21,68.21,0,0,1,181,164.06q11.59-8.35,27.17-8.74a20.48,20.48,0,0,1,12.35,8q4.36,6.08,2.47,14.82a55.7,55.7,0,0,1-4.37,14.25q-2.85,5.9-9.69,12.35-3.42,3-9.5,8T187.62,223a86.39,86.39,0,0,0-9.88,10.83q-4.19,5.51-4.18,9.31-1.14,9.89,3,12.73t10.83,2.28a41.91,41.91,0,0,0,13.49-3.61q6.84-3,11-5.32,4.93-3.42,11-8.55t12.16-10.83q6.07-5.7,11.78-11t9.5-8.74q3-3,5.51-5.7a23.75,23.75,0,0,1,5.89-4.56,11,11,0,0,1,4.75-.38q1.71,0.38-.57,5.7a66.71,66.71,0,0,1-7.41,12.16q-4.37,5.7-9.31,11.4-6.84,7.61-14.63,16A168.94,168.94,0,0,1,224.29,260a116.86,116.86,0,0,1-17.86,12.16,57.71,57.71,0,0,1-19.19,6.65q-17.48,1.14-28.69-7.22T147.34,244.24Zm60.8-71.44q-10.26,3.8-16.15,9.88t-8.55,17.86a153.34,153.34,0,0,0,15-12.35A36.81,36.81,0,0,0,208.14,172.81Z"/>
    <path d="M350.26,169a84.57,84.57,0,0,0-26.6,19.19,235.37,235.37,0,0,0-23,28.31q-10.83,15.59-21.09,32.3T259.06,280a6.14,6.14,0,0,1-7.22,1.9,8.09,8.09,0,0,1-5.32-5.89,15,15,0,0,1,.76-9.31q2.66-9.12,5.13-20.52t4.75-23.94q2.28-12.54,4.75-25.08T267,173.19a7.51,7.51,0,0,1,3.61-4.75,13.49,13.49,0,0,1,6.27-1.9,10.84,10.84,0,0,1,6.08,1.33,7,7,0,0,1,3.42,4.56q1.51,7.61-1,18.24T280,211.56q6.84-8.35,15-19.57a176.76,176.76,0,0,1,17.86-20.9,99.78,99.78,0,0,1,20.52-16A37.06,37.06,0,0,1,356,150a20,20,0,0,1,9.69,6.27,31.68,31.68,0,0,1,5.51,9.88A37.42,37.42,0,0,1,373.25,177a28.45,28.45,0,0,1-.95,9.12q-2.66,5.33-6.27,11.59a66.15,66.15,0,0,0-5.7,12.73,34.27,34.27,0,0,0-1.71,12.73q0.37,6.27,6.08,11.21,2.28,3-.38,4.56a15.89,15.89,0,0,1-7.22,1.71,31.8,31.8,0,0,1-9.12-.95q-4.56-1.14-6.46-3.42a38.9,38.9,0,0,1-7.41-16.91,46.68,46.68,0,0,1,.57-17.29,72.45,72.45,0,0,1,6.08-17.1A126.08,126.08,0,0,1,350.26,169Z"/>
    <path d="M437.28,254.89l-7.6,5.89a55.4,55.4,0,0,1-9.12,5.7,48.8,48.8,0,0,1-10.45,3.8,27.34,27.34,0,0,1-11.59.19,21.61,21.61,0,0,1-8.36-3.23,44.68,44.68,0,0,1-7.22-5.89q-3.42-3.42-4.18-9.88a50.34,50.34,0,0,1-.38-10.26,196.36,196.36,0,0,1,5.32-20.9,174.32,174.32,0,0,1,8.36-21.66,121.14,121.14,0,0,1,21.28-31.16A58.29,58.29,0,0,1,444.5,150a33,33,0,0,1,12.73-.57,26.71,26.71,0,0,1,11.59,4.37,23.44,23.44,0,0,1,7.6,8.55,15.49,15.49,0,0,1,1.14,11.21q-0.77,2.28-1.71,4.56a13.78,13.78,0,0,1-2.28,3.8,4.59,4.59,0,0,1-2.47,1.71c-0.76.13-1.52-.57-2.28-2.09q-0.38-1.14-.95-3.23a19.52,19.52,0,0,0-1.71-4.18,13.05,13.05,0,0,0-3.23-3.8,8.43,8.43,0,0,0-5.51-1.71q-7.22,0-16.34,8.93a146.5,146.5,0,0,0-17.48,20.9,199.56,199.56,0,0,0-14.44,23.94q-6.08,12-7.6,18-2.28,9.89.38,10.45t8.36-4.18a115.67,115.67,0,0,0,12.92-13.11q7.21-8.35,13.68-16.53t11.21-14.44q4.75-6.27,5.13-6.65,4.93-3.79,9.88-3.42a14.15,14.15,0,0,1,8.55,3.61,16.48,16.48,0,0,1,4.94,8,13.7,13.7,0,0,1-.95,9.69q-2.66,6.08-7,14.44a52.68,52.68,0,0,0-5.51,14.82Q462,253,465.4,256t12.54-.38q7.21-3,15.2-10.83t15.77-16.53q7.78-8.74,14.63-16.72a104.15,104.15,0,0,1,11.4-11.78,31.29,31.29,0,0,1,2.85-2.47q1.71-1.33,2.85-.57a2.89,2.89,0,0,1,2.09,2.09,20.51,20.51,0,0,1,.19,2.85,190.22,190.22,0,0,1-11.78,23.94,149.92,149.92,0,0,1-15.39,21.85,114.92,114.92,0,0,1-19,17.86,91.32,91.32,0,0,1-22.61,12.35,28.4,28.4,0,0,1-13.68,1.71,26.36,26.36,0,0,1-19-13.11A36.15,36.15,0,0,1,437.28,254.89Zm71.44-148q-6.08,20.9-25.08,24.7-8.75,1.91-14.06-3a92.52,92.52,0,0,1-9.69-10.45,56.41,56.41,0,0,0-8.36-8.74q-4-3.22-9.69,1.71a67.26,67.26,0,0,0-8,6.84q-3.8,3.8-7.6,7.22a3.81,3.81,0,0,1-4.56.76q-3-2.65-1.33-6.84a36.48,36.48,0,0,1,5.13-8.55,64.08,64.08,0,0,1,7.41-8,44.72,44.72,0,0,1,5.89-4.75,20.54,20.54,0,0,1,10.07-3.23,15.45,15.45,0,0,1,10.07,3.61,56.72,56.72,0,0,1,7.79,7.79,45.88,45.88,0,0,0,6.46,6.65,14.13,14.13,0,0,0,6.84,3.23q3.61,0.57,8.93-2.85a79.73,79.73,0,0,1,7.79-5.51q4-2.47,7.79-5.13,3-1.9,4-.19A6.56,6.56,0,0,1,508.72,106.88Z"/>
    <path d="M611.32,203.21a39,39,0,0,0,9.88-2.28q5.32-1.9,9.88-3,5.32-1.51,11.21-3.61A90.59,90.59,0,0,1,653.5,191c2.53,0,3.54.7,3,2.09a15,15,0,0,1-3.61,4.94,56.38,56.38,0,0,1-6.46,5.51q-3.62,2.66-5.51,3.8a106.44,106.44,0,0,1-18.05,6.46A77.79,77.79,0,0,0,606,220.31q-3.42,6.08-9.5,16.15A199.06,199.06,0,0,1,583,256a107.07,107.07,0,0,1-15.58,16.34q-8.18,6.84-15.77,6.84a28.27,28.27,0,0,1-18.24-6.08q-5.7-3.79-8.55-11.78a62.53,62.53,0,0,1-3.42-17.29,97,97,0,0,1,.57-18.24,115.74,115.74,0,0,1,2.66-14.63,8,8,0,0,1,1.14-3.61,4.91,4.91,0,0,1,1.52-1.33c0.51-.25,1.08-0.5,1.71-0.76a3.79,3.79,0,0,0,1.71-1.52q1.14-4.18,2.28-8.74a30.58,30.58,0,0,1,3.42-8.36A92.52,92.52,0,0,1,553,165.77a39.41,39.41,0,0,1,23.37-11.21,31.25,31.25,0,0,1,15.39.76,26.58,26.58,0,0,1,12.35,8.74,29.11,29.11,0,0,1,6.46,10.83,48.17,48.17,0,0,1,2.28,11.4,43.66,43.66,0,0,1-.38,10.07Q611.69,200.92,611.32,203.21Zm-55.48,62.32q3.79-.76,8.55-5.51a87.52,87.52,0,0,0,9.12-10.83,98.78,98.78,0,0,0,7.6-12.35,56.64,56.64,0,0,0,4.37-10.45,163.5,163.5,0,0,1-16.34.76,83.11,83.11,0,0,1-16.34-1.52,36.85,36.85,0,0,0-1.52,8.93,85,85,0,0,0,0,11.4,76.51,76.51,0,0,0,1.52,11.21A26.23,26.23,0,0,0,555.84,265.52ZM589.66,207a2.69,2.69,0,0,0,2.28-2.28,38.57,38.57,0,0,0,2.85-16q-0.19-8.74-5.51-14.06a10,10,0,0,0-6.84-3.42,14.6,14.6,0,0,0-8,1.52,41.82,41.82,0,0,0-12.16,10.64q-4.56,6.08-8.74,12.54a3.68,3.68,0,0,0,.76,2.66q3.79,3.42,3.42,7.6,0,1.91,4.37,2.28a81,81,0,0,0,9.88.19,93.65,93.65,0,0,0,10.64-.95A58.26,58.26,0,0,1,589.66,207Z"/>
  </g>
  <path d="M659.58,265.52a10.25,10.25,0,0,1-9.69-4,21.85,21.85,0,0,1-4.94-11A25.18,25.18,0,0,1,646.28,238a14.83,14.83,0,0,1,9.12-8.93q8.36-2.65,13.11,2.28A20.27,20.27,0,0,1,674,243.67a24.6,24.6,0,0,1-2.85,14.25A13.78,13.78,0,0,1,659.58,265.52ZM708.21,42.84a9,9,0,0,1,6.65-2.66,16.81,16.81,0,0,1,7.22,1.52,12,12,0,0,1,5.13,4.56A8,8,0,0,1,728,53.1q-1.52,5.7-4.94,16.53t-8.17,24.51q-4.76,13.68-10.26,29.07t-11.21,30.4q-5.7,15-11.21,28.5t-9.69,23q-1.52,3.42-4.18,2.66a5.69,5.69,0,0,1-3.8-3.8,119.7,119.7,0,0,1-1.9-24.7,184,184,0,0,1,2.28-23.56q1.9-10.63,6.27-27.36t10.26-33.82A280.81,280.81,0,0,1,694.34,63Q701.37,48.55,708.21,42.84Z"/>
</svg>
