<?xml version="1.0" encoding="utf-8"?>
<!-- Generator: Adobe Illustrator 19.2.0, SVG Export Plug-In . SVG Version: 6.00 Build 0)  -->
<svg version="1.1" id="Layer_1" xmlns="http://www.w3.org/2000/svg" xmlns:xlink="http://www.w3.org/1999/xlink" x="0px" y="0px"
	 viewBox="0 0 1400 857.5" style="enable-background:new 0 0 1400 857.5;" xml:space="preserve">
<style type="text/css">
	.st0{fill:#F8F3EB;}
	.st1{fill:url(#SVGID_1_);}
	.st2{fill:url(#SVGID_2_);}
	.st3{opacity:0.3;fill:#EAE5DA;enable-background:new    ;}
	.st4{fill:url(#SVGID_3_);}
	.st5{opacity:0.2;fill:#EAE5DA;enable-background:new    ;}
	.st6{opacity:0.5;fill:#EAE5DA;enable-background:new    ;}
	.st7{fill:url(#SVGID_4_);}
	.st8{fill:none;stroke:#EAE5DA;stroke-miterlimit:10;}
	.st9{fill:#EAE5DA;}
	.st10{opacity:0.2;fill:#4B7CAB;enable-background:new    ;}
	.st11{fill:#F7EDE4;}
	
	#nuvem-1 {
		animation: sopranuvemesq 60s ease-in-out alternate infinite;
	}

	#nuvem-2 {
		animation: sopranuvemdir 60s ease-in-out alternate infinite;
	}
	
	@keyframes sopranuvemdir {
		to {
			transform: translate(400px);			
		}
	}

	@keyframes sopranuvemesq {
		to {
			transform: translate(-400px);			
		}
	}
</style>
<g id="onda">
	<path class="st0" d="M167.4,316.2c94.5-44,145.5-27.5,207,0s90,33,126,26.6s40.5-17,109.5,11.8s168,63.2,295.5,13.7
		s186-19.2,312,23.4c126,42.7,182.6-10.8,182.6-10.8V177.5c0,0-42.5,66.7-120.5,38.7s-86.8-78.9-124.3-74.8
		c-37.5,4.1-53.2,14.1-74.2-18.9s-62.1-103.6-132.6-87.2C877.9,51.8,874,89.5,841,81.2s-48.8,13.6-81.8,46.5
		c-33,33-117.7,58.9-201.7,1.4s-82.4-78-130.4-65.6s-46,38.5-85.6-7.7c-23.3-27.2-85.9-63-138.4-14.9s-46.3,94.4-85.3,94
		S31.1,132,1.1,177.4v183.2C66.6,370.2,73.4,360,167.4,316.2z"/>
</g>
<g id="mar">
	
		<linearGradient id="SVGID_1_" gradientUnits="userSpaceOnUse" x1="699.55" y1="-160.9191" x2="699.55" y2="549.4214" gradientTransform="matrix(-1 0 0 -1 1400 414.8716)">
		<stop  offset="0.1539" style="stop-color:#99D5E2"/>
		<stop  offset="0.7683" style="stop-color:#79C8D7"/>
	</linearGradient>
	<path class="st1" d="M167.4,343.6c94.5-44,145.5-27.5,207,0s90,33,126,26.6s40.5-17,109.5,11.8c69,28.9,168,63.2,295.5,13.7
		s186-19.2,312,23.4s182.6-10.9,182.6-10.9V204.8c0,0-46.1,43.7-124.1,15.6c-78-28-87-36.3-124.5-32.1s-49.5-5.5-70.5-38.5
		s-60-79.7-130.5-63.2s-76.5,30.2-109.5,22s-49.5-1.4-82.5,31.6s-117,73.8-201,16.3s-87-57.5-135-45.2s-52.5-5.5-81-28.2
		s-78-41.9-130.5,6.2c-52.5,48.1-64.5,55.6-103.5,55.3S30.9,159.4,0.9,204.7V388C66.6,397.6,73.4,387.3,167.4,343.6z"/>
	
		<linearGradient id="SVGID_2_" gradientUnits="userSpaceOnUse" x1="700" y1="-243.1744" x2="700" y2="87.6969" gradientTransform="matrix(-1 0 0 -1 1400 414.8716)">
		<stop  offset="0.1539" style="stop-color:#65C4CE"/>
		<stop  offset="0.7683" style="stop-color:#3AB7CD"/>
	</linearGradient>
	<path class="st2" d="M0,607.4v-38c52-58.6,132-89.8,191-81.5s61,17.4,118,13.7s71,53.1,130,40.3s40-4.6,143,24.7
		c103,29.3,184,7.3,247-19.2c63-26.6,128,8.2,170,33.9c42,25.7,98,51.3,145,38.5c47-12.8,48-11,123,2.7c75,13.8,133-45.7,133-45.7
		V408.3c0,0-56.6,53.5-182.6,10.9s-184.5-72.8-312-23.4s-226.5,15.1-295.5-13.7c-69-28.9-73.5-18.2-109.5-11.8s-64.5,0.9-126-26.6
		c-61.5-27.5-112.5-44-207,0S66.5,397.8,0,387.9V607.4C0,607.4,1,607.4,0,607.4z"/>
	<path class="st3" d="M167.4,398.7c94.5-44,145.5-27.5,207,0s90,33,126,26.6s40.5-17,109.5,11.8s168,63.2,295.5,13.7
		s186-19.2,312,23.4c126,42.7,182.6-10.8,182.6-10.8v-55.1c0,0-56.6,53.5-182.6,10.9s-184.5-72.8-312-23.4s-226.5,15.1-295.5-13.7
		c-69-28.9-73.5-18.2-109.5-11.8s-64.5,0.9-126-26.6s-112.5-44-207,0S66.5,397.8,0,387.9V443C66.6,452.9,72.9,442.7,167.4,398.7z"/>
	
		<linearGradient id="SVGID_3_" gradientUnits="userSpaceOnUse" x1="700" y1="-295.5671" x2="700" y2="-86.7886" gradientTransform="matrix(-1 0 0 -1 1400 414.8716)">
		<stop  offset="0.1539" style="stop-color:#3EC0C5"/>
		<stop  offset="0.7683" style="stop-color:#25B1C2"/>
	</linearGradient>
	<path class="st4" d="M110,676.6c77-20.2,116,29.3,195,22.9c79-6.4,104,0.9,149,19.3c45,18.3,93,43.1,189,44.9s141-63.2,219-64.1
		c78-0.9,73,35.7,137,28.4c64-7.3,99,48.5,209,70.5s192-34.8,192-34.8V576.8c0,0-58,59.5-133,45.8s-76-15.6-123-2.7
		c-47,12.8-103-12.8-145-38.5c-42-25.7-107-60.5-170-33.9c-63,26.6-144,48.5-247,19.2s-84-37.6-143-24.7c-59,12.8-73-44-130-40.3
		s-59-5.5-118-13.7S52,510.9,0,569.5v184.6C12.7,738.9,46.3,693.3,110,676.6z"/>
	<path class="st5" d="M0.5,753.5V659c52-58.6,132-89.8,191-81.5c59,8.3,61,17.4,118,13.7c57-3.7,71,53.1,130,40.3
		c59-12.8,40-4.6,143,24.7c103,29.3,184,7.3,247-19.2s128,8.2,170,33.9c42,25.6,98,51.3,145,38.5c47-12.8,48-11,123,2.7
		c71.1,13.1,126.9-39.8,132.5-45.3v-90c0,0-58,59.5-133,45.8s-76-15.6-123-2.7c-47,12.8-103-12.8-145-38.5
		c-42-25.7-107-60.5-170-33.9c-63,26.6-144,48.5-247,19.2s-84-37.6-143-24.7c-59,12.8-73-44-130-40.3s-59-5.5-118-13.7
		S52,510.9,0,569.5v184.6C0.1,753.9,0.3,753.7,0.5,753.5z"/>
	<path class="st6" d="M1400,748.6c0,0-68,67.3-178,45.3s-159-88.4-223-81.1c-64,7.3-59-42-137-41s-123,86.4-219,84.6
		s-144-51.3-189-69.6c-45-18.3-69,1.8-148,8.2c-79,6.4-120-62.3-197-42.1S0,744,0,744v98h1400V748.6z"/>
	
		<linearGradient id="SVGID_4_" gradientUnits="userSpaceOnUse" x1="700" y1="-423.3458" x2="700" y2="-281.8879" gradientTransform="matrix(-1 0 0 -1 1400 414.8716)">
		<stop  offset="0.1539" style="stop-color:#00B8C4"/>
		<stop  offset="0.7683" style="stop-color:#00A9B2"/>
	</linearGradient>
	<path class="st7" d="M1400,763.7c0,0-82,56.8-192,34.8s-145-77.9-209-70.5c-64,7.4-59-29.3-137-28.4s-123,66-219,64.1
		c-96-1.9-144-26.6-189-44.9c-45-18.3-70-25.7-149-19.3c-79,6.4-118-43-195-22.9C33,696.7,0,759.1,0,759.1v98h1400V763.7z"/>
	<g>
		<path class="st8" d="M110,676.6C33,696.8,0,759,0,759v8.4c38-30.1,98-38.1,171-3c97,46.6,92,33.1,172,0s166-11.8,274,31.3
			c108,43.1,202,1.8,339-38.5c58.5-17.2,102.4-12,143.1,1.6c-36.7-18.8-63.7-35.1-100.1-30.9c-64,7.3-59-29.3-137-28.4
			c-78,0.9-123,66-219,64.1S499,737,454,718.7c-45-18.3-70-25.7-149-19.3C226,706,187,656.5,110,676.6z"/>
		<path class="st8" d="M1208,798.5c-14.2-2.8-27.1-6.2-39-10c31,14.3,64,28.8,104,37.5c123,26.5,127-15.6,127-15.6v-46.7
			C1400,763.7,1318,820.5,1208,798.5z"/>
	</g>
	<path class="st9" d="M0,786.6c14.2-12.4,32.2-21.1,52.4-25.2c35.8-7.3,76.4-0.4,120.4,20.8c48.9,23.4,72.8,33.6,96.6,32.8
		c24.3-0.9,47.5-13.1,93.6-37.5l6.3-3.3c80-42.3,141.7-8.9,213.1,29.7c14.9,8.1,30.3,16.4,46.4,24.3c43.3,21.3,75.4,28.1,110.8,23.2
		c34.6-4.7,72.1-20.8,124.1-43.1c6.6-2.8,13.4-5.7,20.5-8.8c64-27.2,105.1-36.7,146.5-33.7c44.9,3.3,92.7,21.7,160.1,52.3
		c71.9,32.7,128,37.6,162.4,35.9c21.3-1,37.1-4.6,46.8-7.6v-1c-9.6,3-25.5,6.7-47,7.7c-62,3-122.2-17.8-161.8-35.8
		c-67.5-30.7-115.4-49.1-160.4-52.3c-4.9-0.3-9.7-0.5-14.6-0.5c-37,0-75.8,10.2-132.4,34.3c-7.1,3-13.9,5.9-20.5,8.8
		c-51.9,22.2-89.4,38.3-123.8,43c-35.2,4.8-67.1-1.9-110.2-23.1c-16.1-7.9-31.5-16.2-46.4-24.3c-48-26-91.6-49.6-139.3-49.6
		c-23.6,0-48.2,5.8-74.8,19.8l-6.3,3.3c-91.1,48.2-94.6,50.1-189.2,4.7c-44.3-21.2-85-28.2-121.1-20.9c-20,4.1-37.9,12.7-52.1,24.9
		L0,786.6L0,786.6z"/>
	<g>
		<path class="st9" d="M1400,662c-11.1,6.7-24.8,13.7-40.9,19.8c-28.1,10.5-58,16.1-88.8,16.4c-38.5,0.4-78.6-7.3-119.1-22.9
			c-46.7-18-84-36.5-116.9-52.9c-46.8-23.2-83.7-41.6-125.5-47.9c-10.3-1.6-20.7-2.4-31.4-2.4c-35.7,0-74.2,9-120.6,27.7
			c-89.1,36.1-135.9,49.3-172.7,48.6c-37.5-0.6-64.7-16.6-105.9-40.9c-10.9-6.4-20.7-12.4-29.3-17.7c-28.9-17.6-48-29.3-69-33.4
			c-20.6-4-43.6-1-82.1,10.7c-18.5,5.6-33.3,11.1-46.4,15.8c-47.3,17.3-66.9,24.4-130.2-8.5c-41.9-21.8-80.9-8.1-106.3,7.2
			c-5.4,3.3-10.4,6.7-15,10.2v1.3c4.7-3.6,9.9-7.2,15.5-10.6c16-9.7,32.1-15.6,47.9-17.6c19.7-2.6,39,1,57.3,10.5
			c63.7,33.1,83.4,25.9,131.1,8.5c13.1-4.8,27.9-10.2,46.4-15.8c38.3-11.7,61.2-14.7,81.6-10.7c20.8,4.1,39.9,15.7,68.7,33.3
			c8.6,5.3,18.4,11.2,29.3,17.7c83.6,49.2,106.1,62.5,279.5-7.7c127.4-51.5,183.6-23.7,276.6,22.5c33,16.4,70.3,34.9,117,52.9
			c40.7,15.7,80.9,23.4,119.5,23c30.9-0.3,60.9-5.9,89.1-16.5c16-5.9,29.6-12.9,40.6-19.5V662z"/>
		<path class="st9" d="M1400,612c-11.1,6.7-24.8,13.7-40.9,19.8c-28.1,10.5-58,16.1-88.8,16.4c-38.5,0.4-78.6-7.3-119.1-22.9
			c-46.7-18-84-36.5-116.9-52.9c-46.8-23.2-83.7-41.6-125.5-47.9c-10.3-1.6-20.7-2.4-31.4-2.4c-35.7,0-74.2,9-120.6,27.7
			c-89.1,36.1-135.9,49.3-172.7,48.6c-37.5-0.6-64.7-16.6-105.9-40.9c-10.9-6.4-20.7-12.4-29.3-17.7c-28.9-17.6-48-29.3-69-33.4
			c-20.6-4-43.6-1-82.1,10.7c-18.5,5.6-33.3,11.1-46.4,15.8c-47.3,17.3-66.9,24.4-130.2-8.5c-41.9-21.8-80.9-8.1-106.3,7.2
			c-5.4,3.3-10.4,6.7-15,10.2v1.3c4.7-3.6,9.9-7.2,15.5-10.6c16-9.7,32.1-15.6,47.9-17.6c19.7-2.6,39,1,57.3,10.5
			c63.7,33.1,83.4,25.9,131.1,8.5c13.1-4.8,27.9-10.2,46.4-15.8c38.3-11.7,61.2-14.7,81.6-10.7c20.8,4.1,39.9,15.7,68.7,33.3
			c8.6,5.3,18.4,11.2,29.3,17.7c83.6,49.2,106.1,62.5,279.5-7.7c127.4-51.5,183.6-23.7,276.6,22.5c33,16.4,70.3,34.9,117,52.9
			c40.7,15.7,80.9,23.4,119.5,23c30.9-0.3,60.9-5.9,89.1-16.5c16-5.9,29.6-12.9,40.6-19.5V612z"/>
	</g>
	<g>
		<path class="st9" d="M0,414.7v1.2c8.8,7.1,19.5,11.7,31.4,13.1c21.1,2.6,43.5-4.8,61.4-20.5c12-10.5,36.8-29.2,69-37.7
			c31.5-8.3,61.1-4.3,87.9,11.8c5.6,3.4,10.8,6.6,15.8,9.6c23.4,14.4,40.3,24.8,61,27.6c21.2,2.8,46-2,85.6-16.8
			c88.1-32.8,121.1-22,236.5,43c98.2,55.3,169.1,24,258.8-15.6c16.2-7.2,32.9-14.6,50.7-21.8c55.9-23,91.5-29.7,127-24
			c35.6,5.7,70.9,24.1,124.3,52c5.9,3.1,11.9,6.2,18.2,9.5c34.9,18.1,87.1,37,137.6,23.8c15.4-4,27-10.1,34.7-15.1v-1.1
			c-7.6,5-19.3,11.3-35,15.4c-50.2,13.1-102.2-5.7-136.9-23.7c-6.3-3.3-12.4-6.5-18.2-9.5c-53.5-27.9-88.9-46.4-124.6-52.1
			c-35.7-5.7-71.4,1.1-127.5,24.1c-17.7,7.3-34.5,14.7-50.7,21.8c-45.7,20.2-85.2,37.7-126.2,43.5c-44.9,6.4-86.7-2.5-131.7-27.8
			c-74-41.7-114.3-61.2-156.8-61.2c-24,0-48.7,6.2-80.6,18.1c-39.5,14.7-64.1,19.6-85.1,16.7c-20.5-2.8-37.3-13.1-60.6-27.4
			c-5-3.1-10.2-6.3-15.8-9.6c-17.9-10.7-37-16.1-57.1-16.1c-10.3,0-20.8,1.4-31.6,4.2c-32.4,8.5-57.4,27.4-69.4,37.9
			c-17.7,15.4-39.7,22.8-60.6,20.2C19.6,426.7,8.8,422,0,414.7z"/>
		<path class="st9" d="M1400,513.4c-31.6,14.2-65.3,15.1-102.7,2.8c-37.2-12.2-74.6-36-110.7-59.1c-15.9-10.1-32.3-20.6-48.4-29.9
			c-81.5-47.1-116.2-27.5-208.7,25c-10.1,5.7-20.5,11.6-31.8,17.9C846,498.9,789.8,507,730.6,494c-53.1-11.6-98.8-38.4-127.9-58.8
			c-35.3-24.8-60.3-35.6-86.1-37.2c-27.3-1.6-56.9,7.1-98.9,29.1c-37.5,19.7-70.4,25.9-103.6,19.7c-30.7-5.8-58.8-21.2-91.3-39.1
			c-63.4-34.8-95.5-12.6-148.5,24.2l-4.6,3.2c-19.5,13.5-37.5,19-53.7,16.4c-6.4-1-11.8-3.3-16-5.8v1.1c4.2,2.4,9.5,4.6,15.8,5.6
			c16.4,2.7,34.8-2.9,54.5-16.5l4.6-3.2c52.7-36.6,84.5-58.7,147.4-24.2c32.6,17.9,60.8,33.4,91.6,39.2c33.5,6.3,66.6,0,104.3-19.8
			c41.9-22,71.3-30.6,98.4-29c25.6,1.5,50.4,12.3,85.6,37c52.7,37.1,98.8,52.5,128.2,59c59.4,13,115.8,4.9,167.8-24
			c11.4-6.3,21.8-12.2,31.8-17.9c92.2-52.2,126.6-71.8,207.6-25c16.2,9.3,32.6,19.8,48.4,29.9c36.2,23.1,73.6,46.9,110.9,59.2
			c37.5,12.3,71.4,11.4,103.1-2.7V513.4z"/>
	</g>
	<g>
		<path class="st9" d="M0.9,216.1c22.4-4.9,45.4-4.7,64.4-2.9c114.6,11,134.9-8.8,171.6-44.8c3.7-3.6,7.6-7.4,11.8-11.4
			c20.3-19.2,37.7-27.9,56.4-28.1c0.3,0,0.5,0,0.8,0c26.4,0,56.2,16.7,99.6,55.6c35.7,32.1,64.7,50.6,88.5,56.8
			c20.6,5.3,38.3,1.7,55.8-11.4c15.7-11.8,31.3-16,52.2-14.2c19,1.7,43.4,8.6,84.2,23.8c34,12.7,62.8,12.1,90.6-2.1
			c25-12.7,46-34.6,69-59.9c24.1-26.5,52.4-40.8,79.6-40.1c21.8,0.6,41.1,10.6,56.1,29c19.5,24.1,36.5,42.7,55.8,55.2
			c23,14.9,46.1,18.4,70.8,10.9l4-1.2c51.3-15.7,88.3-27.1,189,45.1c23.7,17,47.4,28,70.6,32.7c9.6,1.9,19,2.8,28.4,2.6v-0.9
			c-9.3,0.2-18.7-0.7-28.2-2.6c-23-4.7-46.6-15.6-70.1-32.5c-61.3-43.9-99.1-57-130.9-57c-20.7,0-38.8,5.6-59.1,11.8l-4,1.2
			c-24.3,7.4-47.2,3.9-69.9-10.8c-19.2-12.4-36.1-31-55.6-55c-15.1-18.7-34.8-28.8-56.9-29.4c-27.5-0.7-56.1,13.6-80.4,40.4
			c-22.9,25.2-43.9,47-68.7,59.7c-27.5,14-56,14.7-89.8,2c-40.8-15.3-65.3-22.2-84.5-23.9c-21.1-1.9-37,2.4-52.9,14.4
			c-17.2,12.9-34.6,16.5-54.9,11.2c-23.6-6.1-52.4-24.6-88-56.6c-43.6-39.1-73.6-55.9-100.3-55.9c-0.3,0-0.5,0-0.8,0
			c-19,0.2-36.6,9-57.1,28.4c-4.2,3.9-8,7.7-11.8,11.4c-36.6,35.8-56.7,55.5-170.8,44.5c-23.9-2.3-45.6-1.3-64.5,2.8L0.9,216.1
			L0.9,216.1z"/>
		<path class="st9" d="M1400,361.2c-10.2,2.4-19-1.2-35.9-11.1c-10.7-6.3-25.4-14.9-47.5-24.8c-26.1-11.7-41.9-22.2-54.6-30.6
			c-24.1-16-35.2-23.4-80.8-13.4l-1.8,0.4c-68,14.9-96.1,21.1-167.3-34.5c-33-25.7-66-38-98-36.5c-25.8,1.2-49.9,11.7-67.7,29.5
			c-35,35.1-80.6,43.3-128.4,23c-25.4-10.7-46.7-18.3-68-20.1c-21.2-1.8-42.9,1.9-70.4,12.1c-8.9,3.3-16.7,6.8-24.3,10.2
			c-39.5,17.6-65.5,29.2-144.7-30.7c-42.4-32-72.5-44.2-98.2-44.2c-29.8,0-53.8,16.4-84.2,37.2c-2,1.4-4.1,2.8-6.2,4.2
			c-40.2,27.4-65.9,23.2-104.9,16.8c-19.4-3.2-41.4-6.8-69.8-7.3c-17.8-0.3-33.2,2.8-46.5,7.7v1c13.2-5,28.7-8.1,46.5-7.8
			c28.4,0.5,50.3,4.1,69.7,7.2c39.2,6.4,65.1,10.7,105.7-16.9c2.1-1.4,4.2-2.8,6.2-4.2c56.3-38.5,90.2-61.8,181.1,7
			c79.7,60.2,106,48.5,145.8,30.8c7.6-3.4,15.4-6.9,24.2-10.1c57-21.2,87-13.4,137.6,8c48.3,20.4,94.3,12.2,129.6-23.2
			c17.6-17.7,41.4-28.1,67-29.2c31.8-1.5,64.5,10.8,97.3,36.3c71.6,55.8,99.8,49.6,168.2,34.7l1.8-0.4c45.2-9.9,56.1-2.6,79.9,13.2
			c12.7,8.4,28.5,18.9,54.7,30.7c22,9.9,36.7,18.5,47.4,24.7c16.3,9.6,24.3,14.2,36.5,11L1400,361.2L1400,361.2z"/>
	</g>
</g>
<g id="nuvens">
	<g id="nuvem-1">
		<path class="st10" d="M342.9,625.3c-5.4,0-10.4,2.1-14.1,5.6c-5.8-6.6-14.2-10.7-23.7-10.7c-4.6,0-9.1,1-13,2.8
			c-6.5-11-18.5-18.5-32.3-18.5c-14.9,0-27.8,8.7-33.8,21.4c-7.6,1.7-13.9,6.9-17,13.8c-1.2-0.2-2.4-0.3-3.6-0.3
			c-10.8,0-19.5,8.7-19.5,19.5s8.7,19.5,19.5,19.5c6,0,11.4-2.7,14.9-7c3.3,1.7,7,2.6,11,2.6c2.7,0,5.2-0.4,7.7-1.3
			c5.9,4,13.1,6.4,20.9,6.4c7.9,0,15.2-2.4,21.3-6.7c5.8,6.7,14.4,11,23.9,11c13.1,0,24.2-7.9,29-19.1c2.7,1.3,5.6,2,8.7,2
			c11.3,0,20.5-9.2,20.5-20.5C363.4,634.5,354.2,625.3,342.9,625.3z"/>
		<path class="st11" d="M387.1,553.1c-8.2,0-15.7,3.2-21.2,8.4c-8.8-9.9-21.6-16.2-35.9-16.2c-7,0-13.7,1.5-19.7,4.2
			c-9.8-16.7-28-28-48.7-28c-22.6,0-42,13.2-51.1,32.3c-11.5,2.5-21,10.4-25.7,20.9c-1.8-0.3-3.6-0.5-5.5-0.5
			c-16.3,0-29.5,13.2-29.5,29.5c0,16.3,13.2,29.5,29.5,29.5c9.1,0,17.2-4.1,22.6-10.6c5,2.5,10.6,3.9,16.5,3.9c4.1,0,8-0.7,11.6-1.9
			c9,6.1,19.9,9.6,31.5,9.6c12,0,23-3.7,32.2-10.1c8.8,10.2,21.8,16.6,36.3,16.6c19.7,0,36.6-11.9,43.9-28.8c4,1.9,8.5,2.9,13.2,2.9
			c17.2,0,31.1-13.9,31.1-31.1C418.1,567.1,404.2,553.1,387.1,553.1z"/>
	</g>
	<g id="nuvem-2">
		<path class="st10" d="M1094.8,738.3c-5.6,0-10.8,2.2-14.6,5.8c-6-6.8-14.8-11.1-24.6-11.1c-4.8,0-9.4,1-13.5,2.9
			c-6.7-11.5-19.2-19.2-33.4-19.2c-15.5,0-28.8,9.1-35,22.2c-7.9,1.7-14.4,7.1-17.6,14.3c-1.2-0.2-2.5-0.4-3.8-0.4
			c-11.2,0-20.2,9.1-20.2,20.2s9.1,20.2,20.2,20.2c6.2,0,11.8-2.8,15.5-7.2c3.4,1.7,7.3,2.7,11.3,2.7c2.8,0,5.4-0.5,7.9-1.3
			c6.2,4.2,13.6,6.6,21.6,6.6c8.2,0,15.8-2.6,22.1-6.9c6,7,14.9,11.4,24.8,11.4c13.5,0,25.1-8.2,30.1-19.8c2.7,1.3,5.8,2,9,2
			c11.7,0,21.3-9.5,21.3-21.3S1106.5,738.3,1094.8,738.3z"/>
		<path class="st11" d="M1149.2,668.6c-8.2,0-15.6,3.2-21.2,8.4c-8.7-9.9-21.5-16.1-35.7-16.1c-7,0-13.6,1.5-19.6,4.2
			c-9.8-16.6-27.8-27.8-48.5-27.8c-22.5,0-41.9,13.2-50.9,32.3c-11.4,2.5-20.8,10.3-25.5,20.8c-1.8-0.3-3.6-0.5-5.5-0.5
			c-16.2,0-29.4,13.2-29.4,29.4s13.2,29.4,29.4,29.4c9,0,17.1-4.1,22.5-10.4c5,2.5,10.6,3.9,16.5,3.9c4.1,0,8-0.7,11.6-1.9
			c8.9,6,19.7,9.5,31.3,9.5c11.9,0,22.9-3.7,32-10c8.7,10.1,21.7,16.6,36.1,16.6c19.6,0,36.5-11.9,43.8-28.8c4,1.9,8.4,2.9,13.1,2.9
			c17.1,0,30.9-13.8,30.9-30.9S1166.3,668.6,1149.2,668.6z"/>
	</g>
</g>
</svg>
